# xmcd
# 
# Track frame offsets:
#     150
#     50242
#     100848
#     151433
#     201704
#     252185
#     301681
# 
# Disc length: 4689
# 
# Revision: 0
# Processed by: cddbd v1.5.2PL0 Copyright (c) Steve Scherf et al.
# Submitted via: fre:ac v1.0.17
# 
DISCID=5e124f07
DTITLE=AZKEN EGUNEKO BIDAIA - iRRATI NOBELA
DYEAR=0
DGENRE=
TTITLE0=1
TTITLE1=2
TTITLE2=3
TTITLE3=4
TTITLE4=5
TTITLE5=6
TTITLE6=7
EXTD=
EXTT0=
EXTT1=
EXTT2=
EXTT3=
EXTT4=
EXTT5=
EXTT6=
PLAYORDER=
